<svg width="25" height="25" viewBox="0 0 25 25" fill="none" xmlns="http://www.w3.org/2000/svg">
<mask id="mask0_1236_7" style="mask-type:alpha" maskUnits="userSpaceOnUse" x="0" y="0" width="25" height="25">
<rect x="0.715515" y="0.124756" width="24" height="24" fill="#D9D9D9"/>
</mask>
<g mask="url(#mask0_1236_7)">
<path d="M9.79053 16.3747L12.7155 14.5997L15.6405 16.3747L14.8655 13.0497L17.4655 10.7997L14.0405 10.5247L12.7155 7.37471L11.3905 10.5247L7.96553 10.7997L10.5655 13.0497L9.79053 16.3747ZM12.7155 23.4247L9.36553 20.1247H4.71553V15.4747L1.41553 12.1247L4.71553 8.77471V4.12471H9.36553L12.7155 0.824707L16.0655 4.12471H20.7155V8.77471L24.0155 12.1247L20.7155 15.4747V20.1247H16.0655L12.7155 23.4247ZM12.7155 20.6247L15.2155 18.1247H18.7155V14.6247L21.2155 12.1247L18.7155 9.62471V6.12471H15.2155L12.7155 3.62471L10.2155 6.12471H6.71553V9.62471L4.21553 12.1247L6.71553 14.6247V18.1247H10.2155L12.7155 20.6247Z" fill="#E4A800"/>
</g>
</svg>
