<svg width="390" height="125" viewBox="0 0 390 125" fill="none" xmlns="http://www.w3.org/2000/svg">
<rect x="11.6" y="0.900024" width="378" height="123.2" rx="21" fill="#686868"/>
<path d="M41.0686 92.239H38.891C38.8513 91.9573 38.7701 91.7071 38.6474 91.4883C38.5248 91.2662 38.3674 91.0773 38.1751 90.9215C37.9829 90.7658 37.7608 90.6464 37.5089 90.5636C37.2604 90.4807 36.9902 90.4393 36.6986 90.4393C36.1716 90.4393 35.7125 90.5702 35.3214 90.8321C34.9303 91.0906 34.6271 91.4684 34.4116 91.9656C34.1962 92.4594 34.0885 93.0593 34.0885 93.7653C34.0885 94.4911 34.1962 95.101 34.4116 95.5948C34.6304 96.0887 34.9353 96.4616 35.3264 96.7134C35.7175 96.9653 36.1699 97.0913 36.6836 97.0913C36.972 97.0913 37.2388 97.0532 37.4841 96.9769C37.7327 96.9007 37.9531 96.7897 38.1453 96.6438C38.3375 96.4947 38.4966 96.3141 38.6226 96.1019C38.7518 95.8898 38.8413 95.6479 38.891 95.3761L41.0686 95.386C41.0122 95.8534 40.8714 96.3041 40.646 96.7383C40.4239 97.1692 40.124 97.5553 39.7461 97.8967C39.3716 98.2348 38.9242 98.5032 38.4038 98.7021C37.8868 98.8976 37.3018 98.9954 36.6488 98.9954C35.7407 98.9954 34.9287 98.7899 34.2128 98.3789C33.5002 97.9679 32.9367 97.373 32.5224 96.5941C32.1114 95.8152 31.9059 94.8723 31.9059 93.7653C31.9059 92.655 32.1148 91.7104 32.5324 90.9315C32.95 90.1526 33.5167 89.5593 34.2327 89.1517C34.9486 88.7407 35.754 88.5352 36.6488 88.5352C37.2388 88.5352 37.7857 88.618 38.2895 88.7838C38.7966 88.9495 39.2457 89.1914 39.6368 89.5096C40.0279 89.8245 40.3461 90.2106 40.5913 90.668C40.8399 91.1254 40.999 91.6491 41.0686 92.239ZM44.7501 99.0004C44.2628 99.0004 43.8287 98.9159 43.4475 98.7468C43.0663 98.5745 42.7647 98.3209 42.5427 97.9862C42.3239 97.6481 42.2145 97.2272 42.2145 96.7234C42.2145 96.2991 42.2924 95.9428 42.4482 95.6545C42.604 95.3661 42.8161 95.1341 43.0846 94.9585C43.353 94.7828 43.658 94.6502 43.9993 94.5607C44.344 94.4713 44.7053 94.4083 45.0831 94.3718C45.5273 94.3254 45.8852 94.2823 46.157 94.2426C46.4288 94.1995 46.626 94.1365 46.7486 94.0536C46.8713 93.9708 46.9326 93.8482 46.9326 93.6857V93.6559C46.9326 93.341 46.8331 93.0974 46.6343 92.9251C46.4387 92.7527 46.1603 92.6666 45.7991 92.6666C45.4179 92.6666 45.1146 92.7511 44.8893 92.9201C44.6639 93.0858 44.5147 93.2946 44.4418 93.5465L42.483 93.3875C42.5824 92.9234 42.778 92.5224 43.0697 92.1843C43.3613 91.8429 43.7375 91.5811 44.1982 91.3988C44.6622 91.2132 45.1992 91.1204 45.809 91.1204C46.2332 91.1204 46.6393 91.1701 47.027 91.2696C47.4181 91.369 47.7645 91.5231 48.0661 91.7319C48.371 91.9407 48.6113 92.2092 48.787 92.5373C48.9626 92.8621 49.0505 93.2516 49.0505 93.7056V98.8562H47.042V97.7973H46.9823C46.8597 98.0359 46.6956 98.2464 46.4901 98.4286C46.2846 98.6076 46.0377 98.7485 45.7493 98.8512C45.461 98.9507 45.1279 99.0004 44.7501 99.0004ZM45.3566 97.5387C45.6681 97.5387 45.9432 97.4774 46.1819 97.3548C46.4205 97.2288 46.6078 97.0598 46.7437 96.8477C46.8796 96.6356 46.9475 96.3953 46.9475 96.1268V95.3164C46.8812 95.3595 46.7901 95.3993 46.6741 95.4357C46.5614 95.4689 46.4338 95.5004 46.2912 95.5302C46.1487 95.5567 46.0062 95.5816 45.8637 95.6048C45.7212 95.6247 45.5919 95.6429 45.4759 95.6595C45.2273 95.6959 45.0102 95.7539 44.8246 95.8335C44.639 95.913 44.4948 96.0207 44.3921 96.1566C44.2894 96.2892 44.238 96.4549 44.238 96.6538C44.238 96.9421 44.3424 97.1625 44.5512 97.315C44.7633 97.4642 45.0318 97.5387 45.3566 97.5387ZM57.0473 93.3974L55.1084 93.5167C55.0752 93.351 55.004 93.2018 54.8946 93.0693C54.7852 92.9334 54.641 92.8257 54.4621 92.7461C54.2864 92.6633 54.0759 92.6218 53.8307 92.6218C53.5025 92.6218 53.2258 92.6914 53.0004 92.8306C52.775 92.9665 52.6623 93.1488 52.6623 93.3775C52.6623 93.5598 52.7353 93.7139 52.8811 93.8399C53.0269 93.9658 53.2772 94.0669 53.6318 94.1431L55.0139 94.4215C55.7563 94.574 56.3098 94.8193 56.6744 95.1573C57.039 95.4954 57.2213 95.9395 57.2213 96.4897C57.2213 96.9902 57.0738 97.4294 56.7788 97.8072C56.4872 98.185 56.0861 98.48 55.5757 98.6921C55.0686 98.9009 54.4836 99.0053 53.8207 99.0053C52.8098 99.0053 52.0044 98.7949 51.4045 98.374C50.8079 97.9497 50.4583 97.373 50.3555 96.6438L52.4386 96.5345C52.5016 96.8427 52.6541 97.078 52.896 97.2404C53.138 97.3995 53.4479 97.4791 53.8257 97.4791C54.1969 97.4791 54.4952 97.4078 54.7206 97.2653C54.9493 97.1195 55.0653 96.9322 55.0686 96.7035C55.0653 96.5113 54.9841 96.3538 54.825 96.2312C54.6659 96.1053 54.4206 96.0091 54.0892 95.9428L52.7667 95.6794C52.021 95.5302 51.4658 95.2717 51.1013 94.9038C50.74 94.5359 50.5594 94.0669 50.5594 93.4968C50.5594 93.0063 50.6919 92.5837 50.9571 92.2291C51.2255 91.8744 51.6017 91.601 52.0856 91.4088C52.5729 91.2165 53.1429 91.1204 53.7959 91.1204C54.7604 91.1204 55.5193 91.3242 56.0729 91.7319C56.6297 92.1396 56.9545 92.6947 57.0473 93.3974ZM60.6728 94.4414V98.8562H58.5549V88.6744H60.6132V92.5671H60.7026C60.875 92.1164 61.1534 91.7634 61.5379 91.5082C61.9223 91.2497 62.4046 91.1204 62.9846 91.1204C63.5149 91.1204 63.9773 91.2364 64.3717 91.4684C64.7694 91.6971 65.0776 92.0269 65.2964 92.4578C65.5185 92.8853 65.6278 93.3974 65.6245 93.994V98.8562H63.5066V94.3718C63.5099 93.9012 63.3906 93.5349 63.1487 93.2731C62.91 93.0113 62.5753 92.8803 62.1444 92.8803C61.8561 92.8803 61.6008 92.9417 61.3788 93.0643C61.16 93.1869 60.9877 93.3659 60.8617 93.6012C60.7391 93.8332 60.6761 94.1133 60.6728 94.4414Z" fill="#FAFAFA"/>
<path d="M144.785 98.8563V88.6744H146.938V97.0814H151.303V98.8563H144.785ZM152.689 98.8563V91.2199H154.806V98.8563H152.689ZM153.752 90.2355C153.438 90.2355 153.167 90.1311 152.942 89.9223C152.72 89.7102 152.609 89.4566 152.609 89.1617C152.609 88.87 152.72 88.6198 152.942 88.4109C153.167 88.1988 153.438 88.0928 153.752 88.0928C154.067 88.0928 154.336 88.1988 154.558 88.4109C154.783 88.6198 154.896 88.87 154.896 89.1617C154.896 89.4566 154.783 89.7102 154.558 89.9223C154.336 90.1311 154.067 90.2355 153.752 90.2355ZM156.503 98.8563V91.2199H158.521V92.5672H158.611C158.77 92.1198 159.035 91.7668 159.406 91.5083C159.778 91.2497 160.222 91.1205 160.739 91.1205C161.262 91.1205 161.708 91.2514 162.076 91.5132C162.444 91.7717 162.689 92.1231 162.812 92.5672H162.891C163.047 92.1297 163.329 91.78 163.737 91.5182C164.148 91.253 164.633 91.1205 165.193 91.1205C165.906 91.1205 166.484 91.3475 166.928 91.8016C167.376 92.2523 167.6 92.892 167.6 93.7206V98.8563H165.487V94.1382C165.487 93.714 165.374 93.3958 165.149 93.1837C164.923 92.9716 164.641 92.8655 164.303 92.8655C163.919 92.8655 163.619 92.9881 163.404 93.2334C163.188 93.4753 163.08 93.7952 163.08 94.1929V98.8563H161.027V94.0935C161.027 93.719 160.919 93.4207 160.704 93.1986C160.492 92.9765 160.212 92.8655 159.864 92.8655C159.628 92.8655 159.416 92.9252 159.227 93.0445C159.042 93.1605 158.894 93.3245 158.785 93.5367C158.676 93.7455 158.621 93.9907 158.621 94.2725V98.8563H156.503ZM169.273 98.8563V91.2199H171.39V98.8563H169.273ZM170.336 90.2355C170.022 90.2355 169.751 90.1311 169.526 89.9223C169.304 89.7102 169.193 89.4566 169.193 89.1617C169.193 88.87 169.304 88.6198 169.526 88.4109C169.751 88.1988 170.022 88.0928 170.336 88.0928C170.651 88.0928 170.92 88.1988 171.142 88.4109C171.367 88.6198 171.48 88.87 171.48 89.1617C171.48 89.4566 171.367 89.7102 171.142 89.9223C170.92 90.1311 170.651 90.2355 170.336 90.2355ZM177.149 91.2199V92.8108H172.55V91.2199H177.149ZM173.594 89.3904H175.712V96.5097C175.712 96.7052 175.742 96.8577 175.801 96.9671C175.861 97.0731 175.944 97.1477 176.05 97.1908C176.159 97.2339 176.285 97.2554 176.428 97.2554C176.527 97.2554 176.627 97.2471 176.726 97.2306C176.826 97.2107 176.902 97.1958 176.955 97.1858L177.288 98.7618C177.182 98.7949 177.033 98.8331 176.841 98.8761C176.648 98.9226 176.415 98.9507 176.14 98.9607C175.629 98.9806 175.182 98.9126 174.797 98.7568C174.416 98.6011 174.119 98.3591 173.907 98.031C173.695 97.7029 173.591 97.2886 173.594 96.7881V89.3904ZM181.926 99.0054C181.141 99.0054 180.465 98.8463 179.898 98.5281C179.335 98.2066 178.9 97.7526 178.595 97.1659C178.291 96.576 178.138 95.8783 178.138 95.0729C178.138 94.2874 178.291 93.598 178.595 93.0047C178.9 92.4114 179.33 91.9491 179.883 91.6176C180.44 91.2862 181.093 91.1205 181.842 91.1205C182.346 91.1205 182.815 91.2017 183.249 91.3641C183.686 91.5232 184.068 91.7635 184.392 92.085C184.72 92.4065 184.976 92.8108 185.158 93.298C185.34 93.7819 185.431 94.3487 185.431 94.9983V95.58H178.983V94.2675H183.438C183.438 93.9626 183.372 93.6924 183.239 93.4571C183.106 93.2218 182.922 93.0378 182.687 92.9053C182.455 92.7694 182.185 92.7014 181.877 92.7014C181.555 92.7014 181.27 92.776 181.022 92.9252C180.776 93.071 180.584 93.2682 180.445 93.5168C180.306 93.762 180.234 94.0355 180.231 94.3371V95.585C180.231 95.9628 180.301 96.2893 180.44 96.5644C180.582 96.8395 180.783 97.0516 181.042 97.2007C181.3 97.3499 181.607 97.4244 181.961 97.4244C182.197 97.4244 182.412 97.3913 182.608 97.325C182.803 97.2587 182.97 97.1593 183.11 97.0267C183.249 96.8941 183.355 96.7317 183.428 96.5395L185.387 96.6688C185.287 97.1394 185.083 97.5504 184.775 97.9017C184.47 98.2497 184.076 98.5215 183.592 98.7171C183.111 98.9093 182.556 99.0054 181.926 99.0054ZM189.627 98.9806C189.047 98.9806 188.522 98.8314 188.051 98.5331C187.584 98.2315 187.213 97.789 186.938 97.2057C186.666 96.619 186.53 95.8998 186.53 95.048C186.53 94.173 186.671 93.4455 186.953 92.8655C187.234 92.2822 187.609 91.8463 188.076 91.558C188.547 91.2663 189.062 91.1205 189.622 91.1205C190.05 91.1205 190.406 91.1934 190.691 91.3392C190.98 91.4817 191.212 91.6607 191.387 91.8761C191.566 92.0883 191.702 92.2971 191.795 92.5026H191.86V88.6744H193.973V98.8563H191.885V97.6333H191.795C191.696 97.8454 191.555 98.0558 191.372 98.2646C191.193 98.4701 190.96 98.6408 190.671 98.7767C190.386 98.9126 190.038 98.9806 189.627 98.9806ZM190.299 97.2952C190.64 97.2952 190.928 97.2024 191.164 97.0168C191.402 96.8279 191.585 96.5644 191.711 96.2263C191.84 95.8882 191.904 95.4922 191.904 95.0381C191.904 94.584 191.841 94.1896 191.716 93.8548C191.59 93.5201 191.407 93.2616 191.169 93.0793C190.93 92.897 190.64 92.8058 190.299 92.8058C189.951 92.8058 189.657 92.9003 189.419 93.0892C189.18 93.2781 188.999 93.54 188.877 93.8747C188.754 94.2095 188.693 94.5973 188.693 95.0381C188.693 95.4822 188.754 95.875 188.877 96.2163C189.003 96.5544 189.183 96.8196 189.419 97.0118C189.657 97.2007 189.951 97.2952 190.299 97.2952ZM202.603 98.8563H198.994V88.6744H202.633C203.657 88.6744 204.539 88.8783 205.278 89.2859C206.017 89.6903 206.586 90.272 206.983 91.031C207.384 91.79 207.585 92.6981 207.585 93.7554C207.585 94.816 207.384 95.7275 206.983 96.4898C206.586 97.2521 206.014 97.8371 205.268 98.2448C204.526 98.6524 203.637 98.8563 202.603 98.8563ZM201.147 97.0118H202.514C203.15 97.0118 203.685 96.8991 204.12 96.6737C204.557 96.445 204.885 96.0921 205.104 95.6148C205.326 95.1342 205.437 94.5144 205.437 93.7554C205.437 93.003 205.326 92.3882 205.104 91.9109C204.885 91.4337 204.559 91.0824 204.125 90.857C203.69 90.6316 203.155 90.5189 202.519 90.5189H201.147V97.0118ZM212.62 99.0054C211.834 99.0054 211.158 98.8463 210.591 98.5281C210.028 98.2066 209.594 97.7526 209.289 97.1659C208.984 96.576 208.831 95.8783 208.831 95.0729C208.831 94.2874 208.984 93.598 209.289 93.0047C209.594 92.4114 210.023 91.9491 210.576 91.6176C211.133 91.2862 211.786 91.1205 212.535 91.1205C213.039 91.1205 213.508 91.2017 213.942 91.3641C214.38 91.5232 214.761 91.7635 215.086 92.085C215.414 92.4065 215.669 92.8108 215.851 93.298C216.034 93.7819 216.125 94.3487 216.125 94.9983V95.58H209.677V94.2675H214.131C214.131 93.9626 214.065 93.6924 213.932 93.4571C213.8 93.2218 213.616 93.0378 213.38 92.9053C213.148 92.7694 212.878 92.7014 212.57 92.7014C212.249 92.7014 211.964 92.776 211.715 92.9252C211.47 93.071 211.277 93.2682 211.138 93.5168C210.999 93.762 210.928 94.0355 210.924 94.3371V95.585C210.924 95.9628 210.994 96.2893 211.133 96.5644C211.276 96.8395 211.476 97.0516 211.735 97.2007C211.993 97.3499 212.3 97.4244 212.655 97.4244C212.89 97.4244 213.105 97.3913 213.301 97.325C213.496 97.2587 213.664 97.1593 213.803 97.0267C213.942 96.8941 214.048 96.7317 214.121 96.5395L216.08 96.6688C215.981 97.1394 215.777 97.5504 215.469 97.9017C215.164 98.2497 214.769 98.5215 214.285 98.7171C213.805 98.9093 213.25 99.0054 212.62 99.0054ZM219.684 99.0004C219.197 99.0004 218.763 98.9159 218.382 98.7469C218.001 98.5745 217.699 98.321 217.477 97.9862C217.258 97.6482 217.149 97.2272 217.149 96.7234C217.149 96.2992 217.227 95.9429 217.383 95.6546C217.538 95.3662 217.75 95.1342 218.019 94.9585C218.287 94.7829 218.592 94.6503 218.934 94.5608C219.278 94.4713 219.64 94.4083 220.018 94.3719C220.462 94.3255 220.82 94.2824 221.091 94.2426C221.363 94.1995 221.56 94.1366 221.683 94.0537C221.806 93.9708 221.867 93.8482 221.867 93.6858V93.656C221.867 93.3411 221.768 93.0975 221.569 92.9252C221.373 92.7528 221.095 92.6666 220.733 92.6666C220.352 92.6666 220.049 92.7511 219.824 92.9202C219.598 93.0859 219.449 93.2947 219.376 93.5466L217.417 93.3875C217.517 92.9235 217.712 92.5225 218.004 92.1844C218.296 91.843 218.672 91.5812 219.133 91.3989C219.597 91.2133 220.134 91.1205 220.743 91.1205C221.168 91.1205 221.574 91.1702 221.961 91.2696C222.353 91.369 222.699 91.5232 223 91.732C223.305 91.9408 223.546 92.2092 223.721 92.5374C223.897 92.8622 223.985 93.2516 223.985 93.7057V98.8563H221.976V97.7973H221.917C221.794 98.0359 221.63 98.2464 221.424 98.4287C221.219 98.6077 220.972 98.7485 220.684 98.8513C220.395 98.9507 220.062 99.0004 219.684 99.0004ZM220.291 97.5388C220.603 97.5388 220.878 97.4775 221.116 97.3548C221.355 97.2289 221.542 97.0599 221.678 96.8477C221.814 96.6356 221.882 96.3953 221.882 96.1269V95.3165C221.816 95.3596 221.724 95.3993 221.608 95.4358C221.496 95.469 221.368 95.5004 221.226 95.5303C221.083 95.5568 220.941 95.5816 220.798 95.6048C220.656 95.6247 220.526 95.643 220.41 95.6595C220.162 95.696 219.945 95.754 219.759 95.8335C219.573 95.9131 219.429 96.0208 219.326 96.1567C219.224 96.2893 219.172 96.455 219.172 96.6538C219.172 96.9422 219.277 97.1626 219.486 97.3151C219.698 97.4642 219.966 97.5388 220.291 97.5388ZM227.746 88.6744V98.8563H225.628V88.6744H227.746ZM235.796 93.3975L233.857 93.5168C233.824 93.3511 233.753 93.2019 233.643 93.0693C233.534 92.9334 233.39 92.8257 233.211 92.7462C233.035 92.6633 232.825 92.6219 232.58 92.6219C232.251 92.6219 231.975 92.6915 231.749 92.8307C231.524 92.9666 231.411 93.1489 231.411 93.3776C231.411 93.5599 231.484 93.714 231.63 93.8399C231.776 93.9659 232.026 94.067 232.381 94.1432L233.763 94.4216C234.505 94.5741 235.059 94.8193 235.423 95.1574C235.788 95.4955 235.97 95.9396 235.97 96.4898C235.97 96.9903 235.823 97.4294 235.528 97.8073C235.236 98.1851 234.835 98.4801 234.325 98.6922C233.817 98.901 233.232 99.0054 232.57 99.0054C231.559 99.0054 230.753 98.7949 230.153 98.374C229.557 97.9498 229.207 97.3731 229.104 96.6439L231.187 96.5345C231.25 96.8428 231.403 97.0781 231.645 97.2405C231.887 97.3996 232.197 97.4791 232.575 97.4791C232.946 97.4791 233.244 97.4079 233.469 97.2654C233.698 97.1195 233.814 96.9323 233.817 96.7036C233.814 96.5113 233.733 96.3539 233.574 96.2313C233.415 96.1053 233.169 96.0092 232.838 95.9429L231.516 95.6794C230.77 95.5303 230.215 95.2717 229.85 94.9038C229.489 94.5359 229.308 94.067 229.308 93.4969C229.308 93.0064 229.441 92.5838 229.706 92.2291C229.974 91.8745 230.351 91.6011 230.834 91.4088C231.322 91.2166 231.892 91.1205 232.545 91.1205C233.509 91.1205 234.268 91.3243 234.822 91.732C235.379 92.1396 235.703 92.6948 235.796 93.3975Z" fill="#FAFAFA"/>
<path d="M301.508 91.6027C301.469 91.2017 301.298 90.8901 300.996 90.6681C300.695 90.446 300.285 90.335 299.768 90.335C299.417 90.335 299.12 90.3847 298.878 90.4841C298.636 90.5802 298.451 90.7145 298.322 90.8868C298.196 91.0592 298.133 91.2547 298.133 91.4734C298.126 91.6557 298.164 91.8148 298.247 91.9507C298.333 92.0866 298.451 92.2043 298.6 92.3037C298.749 92.3998 298.921 92.4843 299.117 92.5573C299.313 92.6269 299.521 92.6865 299.743 92.7362L300.658 92.955C301.102 93.0544 301.51 93.187 301.881 93.3527C302.252 93.5184 302.574 93.7223 302.846 93.9642C303.117 94.2062 303.328 94.4912 303.477 94.8193C303.63 95.1475 303.707 95.5236 303.711 95.9479C303.707 96.571 303.548 97.1112 303.233 97.5686C302.922 98.0227 302.471 98.3757 301.881 98.6276C301.295 98.8761 300.587 99.0004 299.758 99.0004C298.936 99.0004 298.22 98.8745 297.611 98.6226C297.004 98.3707 296.53 97.9978 296.189 97.504C295.851 97.0068 295.673 96.392 295.657 95.6595H297.74C297.763 96.0009 297.861 96.2859 298.033 96.5146C298.209 96.74 298.443 96.9107 298.734 97.0267C299.029 97.1394 299.362 97.1958 299.733 97.1958C300.098 97.1958 300.415 97.1427 300.683 97.0367C300.955 96.9306 301.165 96.7831 301.314 96.5942C301.464 96.4053 301.538 96.1882 301.538 95.9429C301.538 95.7142 301.47 95.522 301.334 95.3662C301.202 95.2104 301.006 95.0779 300.748 94.9685C300.492 94.8591 300.179 94.7597 299.808 94.6702L298.699 94.3918C297.841 94.183 297.163 93.8565 296.666 93.4124C296.169 92.9682 295.922 92.37 295.925 91.6176C295.922 91.0011 296.086 90.4626 296.417 90.0019C296.752 89.5412 297.211 89.1815 297.795 88.923C298.378 88.6645 299.041 88.5352 299.783 88.5352C300.539 88.5352 301.198 88.6645 301.762 88.923C302.329 89.1815 302.769 89.5412 303.084 90.0019C303.399 90.4626 303.562 90.9962 303.572 91.6027H301.508ZM305.119 101.72V91.2199H307.207V92.5026H307.302C307.394 92.2971 307.529 92.0883 307.704 91.8761C307.883 91.6607 308.115 91.4817 308.4 91.3392C308.689 91.1934 309.047 91.1205 309.474 91.1205C310.031 91.1205 310.545 91.2663 311.015 91.558C311.486 91.8463 311.862 92.2822 312.144 92.8655C312.426 93.4455 312.566 94.173 312.566 95.048C312.566 95.8998 312.429 96.619 312.154 97.2057C311.882 97.789 311.511 98.2315 311.04 98.5331C310.573 98.8314 310.049 98.9806 309.469 98.9806C309.058 98.9806 308.708 98.9126 308.42 98.7767C308.135 98.6408 307.901 98.4701 307.719 98.2646C307.537 98.0558 307.398 97.8454 307.302 97.6333H307.237V101.72H305.119ZM307.192 95.0381C307.192 95.4922 307.255 95.8882 307.381 96.2263C307.507 96.5644 307.689 96.8279 307.928 97.0168C308.167 97.2024 308.457 97.2952 308.798 97.2952C309.143 97.2952 309.434 97.2007 309.673 97.0118C309.912 96.8196 310.092 96.5544 310.215 96.2163C310.341 95.875 310.404 95.4822 310.404 95.0381C310.404 94.5973 310.342 94.2095 310.22 93.8747C310.097 93.54 309.917 93.2781 309.678 93.0892C309.439 92.9003 309.146 92.8058 308.798 92.8058C308.453 92.8058 308.162 92.897 307.923 93.0793C307.688 93.2616 307.507 93.5201 307.381 93.8548C307.255 94.1896 307.192 94.584 307.192 95.0381ZM317.458 99.0054C316.673 99.0054 315.997 98.8463 315.43 98.5281C314.867 98.2066 314.432 97.7526 314.127 97.1659C313.823 96.576 313.67 95.8783 313.67 95.0729C313.67 94.2874 313.823 93.598 314.127 93.0047C314.432 92.4114 314.862 91.9491 315.415 91.6176C315.972 91.2862 316.625 91.1205 317.374 91.1205C317.878 91.1205 318.347 91.2017 318.781 91.3641C319.218 91.5232 319.6 91.7635 319.924 92.085C320.252 92.4065 320.508 92.8108 320.69 93.298C320.872 93.7819 320.963 94.3487 320.963 94.9983V95.58H314.515V94.2675H318.97C318.97 93.9626 318.904 93.6924 318.771 93.4571C318.638 93.2218 318.454 93.0378 318.219 92.9053C317.987 92.7694 317.717 92.7014 317.409 92.7014C317.087 92.7014 316.802 92.776 316.554 92.9252C316.308 93.071 316.116 93.2682 315.977 93.5168C315.838 93.762 315.766 94.0355 315.763 94.3371V95.585C315.763 95.9628 315.833 96.2893 315.972 96.5644C316.114 96.8395 316.315 97.0516 316.574 97.2007C316.832 97.3499 317.139 97.4244 317.493 97.4244C317.729 97.4244 317.944 97.3913 318.14 97.325C318.335 97.2587 318.502 97.1593 318.642 97.0267C318.781 96.8941 318.887 96.7317 318.96 96.5395L320.919 96.6688C320.819 97.1394 320.615 97.5504 320.307 97.9017C320.002 98.2497 319.608 98.5215 319.124 98.7171C318.643 98.9093 318.088 99.0054 317.458 99.0054ZM325.796 99.0054C325.014 99.0054 324.341 98.8397 323.777 98.5083C323.217 98.1735 322.786 97.7095 322.485 97.1162C322.186 96.5229 322.037 95.8402 322.037 95.0679C322.037 94.2857 322.188 93.5996 322.49 93.0097C322.795 92.4164 323.227 91.954 323.787 91.6226C324.347 91.2878 325.014 91.1205 325.786 91.1205C326.452 91.1205 327.035 91.2414 327.536 91.4834C328.036 91.7253 328.432 92.0651 328.724 92.5026C329.016 92.9401 329.177 93.4538 329.206 94.0438H327.208C327.151 93.6626 327.002 93.356 326.76 93.124C326.522 92.8887 326.208 92.771 325.821 92.771C325.493 92.771 325.206 92.8605 324.961 93.0395C324.719 93.2152 324.53 93.472 324.394 93.8101C324.258 94.1482 324.19 94.5575 324.19 95.0381C324.19 95.5253 324.256 95.9396 324.389 96.281C324.525 96.6224 324.715 96.8825 324.961 97.0615C325.206 97.2405 325.493 97.33 325.821 97.33C326.063 97.33 326.28 97.2803 326.472 97.1808C326.668 97.0814 326.828 96.9372 326.954 96.7483C327.083 96.5561 327.168 96.3257 327.208 96.0573H329.206C329.173 96.6406 329.014 97.1543 328.729 97.5984C328.447 98.0393 328.058 98.384 327.561 98.6325C327.064 98.8811 326.475 99.0054 325.796 99.0054ZM330.562 98.8563V91.2199H332.68V98.8563H330.562ZM331.626 90.2355C331.311 90.2355 331.041 90.1311 330.816 89.9223C330.594 89.7102 330.483 89.4566 330.483 89.1617C330.483 88.87 330.594 88.6198 330.816 88.4109C331.041 88.1988 331.311 88.0928 331.626 88.0928C331.941 88.0928 332.21 88.1988 332.432 88.4109C332.657 88.6198 332.77 88.87 332.77 89.1617C332.77 89.4566 332.657 89.7102 332.432 89.9223C332.21 90.1311 331.941 90.2355 331.626 90.2355ZM336.554 99.0004C336.067 99.0004 335.633 98.9159 335.252 98.7469C334.871 98.5745 334.569 98.321 334.347 97.9862C334.128 97.6482 334.019 97.2272 334.019 96.7234C334.019 96.2992 334.097 95.9429 334.252 95.6546C334.408 95.3662 334.62 95.1342 334.889 94.9585C335.157 94.7829 335.462 94.6503 335.804 94.5608C336.148 94.4713 336.51 94.4083 336.887 94.3719C337.332 94.3255 337.69 94.2824 337.961 94.2426C338.233 94.1995 338.43 94.1366 338.553 94.0537C338.676 93.9708 338.737 93.8482 338.737 93.6858V93.656C338.737 93.3411 338.637 93.0975 338.439 92.9252C338.243 92.7528 337.965 92.6666 337.603 92.6666C337.222 92.6666 336.919 92.7511 336.694 92.9202C336.468 93.0859 336.319 93.2947 336.246 93.5466L334.287 93.3875C334.387 92.9235 334.582 92.5225 334.874 92.1844C335.166 91.843 335.542 91.5812 336.002 91.3989C336.467 91.2133 337.003 91.1205 337.613 91.1205C338.038 91.1205 338.444 91.1702 338.831 91.2696C339.222 91.369 339.569 91.5232 339.87 91.732C340.175 91.9408 340.416 92.2092 340.591 92.5374C340.767 92.8622 340.855 93.2516 340.855 93.7057V98.8563H338.846V97.7973H338.787C338.664 98.0359 338.5 98.2464 338.294 98.4287C338.089 98.6077 337.842 98.7485 337.554 98.8513C337.265 98.9507 336.932 99.0004 336.554 99.0004ZM337.161 97.5388C337.472 97.5388 337.748 97.4775 337.986 97.3548C338.225 97.2289 338.412 97.0599 338.548 96.8477C338.684 96.6356 338.752 96.3953 338.752 96.1269V95.3165C338.685 95.3596 338.594 95.3993 338.478 95.4358C338.366 95.469 338.238 95.5004 338.096 95.5303C337.953 95.5568 337.81 95.5816 337.668 95.6048C337.525 95.6247 337.396 95.643 337.28 95.6595C337.032 95.696 336.815 95.754 336.629 95.8335C336.443 95.9131 336.299 96.0208 336.196 96.1567C336.094 96.2893 336.042 96.455 336.042 96.6538C336.042 96.9422 336.147 97.1626 336.355 97.3151C336.568 97.4642 336.836 97.5388 337.161 97.5388ZM344.616 88.6744V98.8563H342.498V88.6744H344.616ZM356.344 91.9656C356.274 91.7237 356.176 91.5099 356.05 91.3243C355.924 91.1354 355.77 90.9763 355.588 90.847C355.409 90.7145 355.204 90.6134 354.972 90.5438C354.743 90.4742 354.489 90.4394 354.211 90.4394C353.691 90.4394 353.233 90.5686 352.839 90.8271C352.448 91.0857 352.143 91.4618 351.924 91.9557C351.705 92.4462 351.596 93.0461 351.596 93.7554C351.596 94.4647 351.704 95.0679 351.919 95.5651C352.134 96.0622 352.439 96.4417 352.834 96.7036C353.228 96.9621 353.694 97.0913 354.231 97.0913C354.718 97.0913 355.134 97.0052 355.479 96.8328C355.827 96.6572 356.092 96.4102 356.274 96.0921C356.46 95.7739 356.553 95.3977 356.553 94.9635L356.99 95.0281H354.365V93.4074H358.626V94.6901C358.626 95.585 358.437 96.3539 358.059 96.9969C357.681 97.6366 357.161 98.1304 356.498 98.4784C355.835 98.8231 355.076 98.9955 354.221 98.9955C353.266 98.9955 352.428 98.785 351.705 98.3641C350.983 97.9398 350.419 97.3383 350.015 96.5594C349.614 95.7772 349.413 94.8492 349.413 93.7753C349.413 92.95 349.533 92.2142 349.771 91.5679C350.013 90.9183 350.351 90.3681 350.786 89.9173C351.22 89.4666 351.725 89.1235 352.302 88.8882C352.879 88.6529 353.503 88.5352 354.176 88.5352C354.753 88.5352 355.29 88.6198 355.787 88.7888C356.284 88.9545 356.725 89.1898 357.109 89.4948C357.497 89.7997 357.814 90.1626 358.059 90.5835C358.304 91.0011 358.462 91.4618 358.531 91.9656H356.344ZM360.681 98.8563V91.2199H362.799V98.8563H360.681ZM361.745 90.2355C361.431 90.2355 361.16 90.1311 360.935 89.9223C360.713 89.7102 360.602 89.4566 360.602 89.1617C360.602 88.87 360.713 88.6198 360.935 88.4109C361.16 88.1988 361.431 88.0928 361.745 88.0928C362.06 88.0928 362.329 88.1988 362.551 88.4109C362.776 88.6198 362.889 88.87 362.889 89.1617C362.889 89.4566 362.776 89.7102 362.551 89.9223C362.329 90.1311 362.06 90.2355 361.745 90.2355ZM368.602 91.2199V92.8108H363.889V91.2199H368.602ZM364.968 98.8563V90.6681C364.968 90.1145 365.076 89.6555 365.291 89.2909C365.51 88.9263 365.808 88.6529 366.186 88.4706C366.564 88.2883 366.993 88.1972 367.474 88.1972C367.799 88.1972 368.095 88.222 368.364 88.2717C368.636 88.3215 368.838 88.3662 368.97 88.406L368.593 89.9969C368.51 89.9704 368.407 89.9455 368.284 89.9223C368.165 89.8991 368.042 89.8875 367.916 89.8875C367.605 89.8875 367.388 89.9604 367.265 90.1063C367.142 90.2488 367.081 90.4493 367.081 90.7078V98.8563H364.968ZM373.958 91.2199V92.8108H369.359V91.2199H373.958ZM370.403 89.3904H372.521V96.5097C372.521 96.7052 372.551 96.8577 372.611 96.9671C372.67 97.0731 372.753 97.1477 372.859 97.1908C372.969 97.2339 373.095 97.2554 373.237 97.2554C373.337 97.2554 373.436 97.2471 373.536 97.2306C373.635 97.2107 373.711 97.1958 373.764 97.1858L374.097 98.7618C373.991 98.7949 373.842 98.8331 373.65 98.8761C373.458 98.9226 373.224 98.9507 372.949 98.9607C372.438 98.9806 371.991 98.9126 371.607 98.7568C371.225 98.6011 370.929 98.3591 370.717 98.031C370.505 97.7029 370.4 97.2886 370.403 96.7881V89.3904Z" fill="#FAFAFA"/>
<path d="M32.8524 80.6267V55.1721H34.4831V80.6267H32.8524ZM37.1777 63.5741C37.0981 62.7721 36.7568 62.1489 36.1535 61.7048C35.5503 61.2607 34.7317 61.0386 33.6976 61.0386C32.9949 61.0386 32.4017 61.1381 31.9177 61.3369C31.4338 61.5292 31.0626 61.7976 30.8041 62.1423C30.5522 62.487 30.4263 62.8781 30.4263 63.3156C30.413 63.6802 30.4892 63.9984 30.655 64.2702C30.8273 64.5419 31.0626 64.7773 31.3609 64.9761C31.6592 65.1684 32.0039 65.3374 32.395 65.4832C32.7861 65.6224 33.2037 65.7417 33.6479 65.8412L35.4774 66.2787C36.3657 66.4775 37.181 66.7427 37.9234 67.0741C38.6659 67.4056 39.3088 67.8132 39.8524 68.2971C40.396 68.781 40.8169 69.3511 41.1152 70.0074C41.4201 70.6636 41.5759 71.416 41.5825 72.2645C41.5759 73.5107 41.2577 74.5912 40.628 75.506C40.0049 76.4141 39.1034 77.1201 37.9234 77.6239C36.7501 78.121 35.3349 78.3696 33.6777 78.3696C32.0338 78.3696 30.6019 78.1177 29.3822 77.6139C28.1692 77.1101 27.2213 76.3644 26.5385 75.3767C25.8624 74.3824 25.5077 73.1527 25.4746 71.6878H29.6408C29.6872 72.3705 29.8827 72.9406 30.2274 73.398C30.5787 73.8488 31.0461 74.1901 31.6294 74.4221C32.2194 74.6475 32.8856 74.7602 33.628 74.7602C34.3571 74.7602 34.9902 74.6542 35.5271 74.442C36.0707 74.2299 36.4916 73.9349 36.7899 73.5571C37.0882 73.1792 37.2374 72.7451 37.2374 72.2545C37.2374 71.7971 37.1015 71.4127 36.8297 71.1011C36.5645 70.7896 36.1734 70.5244 35.6564 70.3057C35.146 70.0869 34.5195 69.8881 33.7771 69.7091L31.5598 69.1523C29.8429 68.7346 28.4874 68.0817 27.493 67.1935C26.4987 66.3052 26.0049 65.1087 26.0115 63.604C26.0049 62.371 26.333 61.2938 26.9959 60.3724C27.6654 59.451 28.5835 58.7318 29.7501 58.2148C30.9168 57.6977 32.2426 57.4392 33.7274 57.4392C35.2388 57.4392 36.5579 57.6977 37.6848 58.2148C38.8183 58.7318 39.6999 59.451 40.3297 60.3724C40.9594 61.2938 41.2842 62.3611 41.3041 63.5741H37.1777ZM58.2771 78.3596C56.8718 78.3596 55.619 78.1011 54.5186 77.5841C53.4249 77.067 52.5565 76.3544 51.9135 75.4463C51.2705 74.5382 50.9357 73.4974 50.9092 72.3241H55.0854C55.1318 73.113 55.4632 73.7526 56.0797 74.2432C56.6962 74.7337 57.4286 74.979 58.2771 74.979C58.9533 74.979 59.5499 74.8298 60.0669 74.5315C60.5906 74.2266 60.9982 73.8057 61.2899 73.2687C61.5882 72.7252 61.7374 72.1021 61.7374 71.3994C61.7374 70.6835 61.5849 70.0538 61.28 69.5102C60.9817 68.9667 60.5674 68.5424 60.0371 68.2375C59.5068 67.9326 58.9002 67.7768 58.2175 67.7702C57.6209 67.7702 57.0409 67.8928 56.4774 68.1381C55.9206 68.3833 55.4864 68.7181 55.1749 69.1423L51.3467 68.4562L52.3112 57.7176H64.7601V61.2375H55.8609L55.3339 66.3383H55.4533C55.8112 65.8346 56.3515 65.4169 57.074 65.0855C57.7965 64.7541 58.6052 64.5883 59.5001 64.5883C60.7265 64.5883 61.8202 64.8767 62.7814 65.4534C63.7426 66.0301 64.5016 66.8222 65.0584 67.8298C65.6152 68.8308 65.8903 69.9842 65.8837 71.29C65.8903 72.6622 65.5721 73.8819 64.9291 74.9491C64.2927 76.0097 63.4012 76.845 62.2544 77.4548C61.1142 78.058 59.7885 78.3596 58.2771 78.3596ZM76.8709 78.5287C75.1606 78.5221 73.6891 78.1011 72.4561 77.2659C71.2298 76.4307 70.2852 75.2209 69.6223 73.6366C68.966 72.0524 68.6412 70.1466 68.6479 67.9193C68.6479 65.6987 68.976 63.8061 69.6322 62.2417C70.2951 60.6774 71.2397 59.4875 72.466 58.6721C73.699 57.8502 75.1673 57.4392 76.8709 57.4392C78.5745 57.4392 80.0394 57.8502 81.2658 58.6721C82.4987 59.4941 83.4466 60.6873 84.1095 62.2517C84.7724 63.8095 85.1005 65.6987 85.0939 67.9193C85.0939 70.1532 84.7624 72.0623 84.0996 73.6466C83.4433 75.2309 82.502 76.4406 81.2757 77.2758C80.0494 78.1111 78.5811 78.5287 76.8709 78.5287ZM76.8709 74.9591C78.0375 74.9591 78.9689 74.3724 79.6649 73.1991C80.3609 72.0258 80.7056 70.2659 80.699 67.9193C80.699 66.3748 80.5399 65.0888 80.2217 64.0614C79.9102 63.0339 79.466 62.2616 78.8893 61.7446C78.3193 61.2275 77.6464 60.969 76.8709 60.969C75.7108 60.969 74.7828 61.549 74.0868 62.7091C73.3908 63.8691 73.0394 65.6059 73.0328 67.9193C73.0328 69.4837 73.1886 70.7896 73.5001 71.8369C73.8183 72.8776 74.2658 73.6598 74.8425 74.1835C75.4192 74.7006 76.0953 74.9591 76.8709 74.9591Z" fill="#FAFAFA"/>
<path d="M187.51 57.7175V78.0812H183.205V61.8042H183.085L178.422 64.7275V60.9093L183.463 57.7175H187.51ZM200.334 78.5286C198.624 78.522 197.152 78.1011 195.919 77.2658C194.693 76.4306 193.748 75.2209 193.086 73.6366C192.429 72.0523 192.105 70.1465 192.111 67.9192C192.111 65.6986 192.439 63.8061 193.096 62.2417C193.758 60.6773 194.703 59.4874 195.929 58.6721C197.162 57.8501 198.631 57.4391 200.334 57.4391C202.038 57.4391 203.503 57.8501 204.729 58.6721C205.962 59.4941 206.91 60.6872 207.573 62.2516C208.236 63.8094 208.564 65.6986 208.557 67.9192C208.557 70.1531 208.226 72.0622 207.563 73.6465C206.907 75.2308 205.965 76.4406 204.739 77.2758C203.513 78.111 202.044 78.5286 200.334 78.5286ZM200.334 74.959C201.501 74.959 202.432 74.3724 203.128 73.1991C203.824 72.0258 204.169 70.2658 204.162 67.9192C204.162 66.3747 204.003 65.0888 203.685 64.0613C203.373 63.0338 202.929 62.2616 202.353 61.7445C201.783 61.2275 201.11 60.969 200.334 60.969C199.174 60.969 198.246 61.549 197.55 62.709C196.854 63.8691 196.503 65.6058 196.496 67.9192C196.496 69.4836 196.652 70.7895 196.963 71.8369C197.282 72.8776 197.729 73.6598 198.306 74.1834C198.882 74.7005 199.559 74.959 200.334 74.959ZM222.773 74.263V73.1891C222.773 72.3738 222.946 71.6247 223.29 70.942C223.642 70.2526 224.149 69.7024 224.812 69.2914C225.481 68.8738 226.297 68.665 227.258 68.665C228.232 68.665 229.051 68.8705 229.714 69.2815C230.383 69.6924 230.887 70.2426 231.225 70.932C231.57 71.6148 231.742 72.3672 231.742 73.1891V74.263C231.742 75.0783 231.57 75.8307 231.225 76.5201C230.88 77.2029 230.373 77.7497 229.704 78.1607C229.034 78.5783 228.219 78.7871 227.258 78.7871C226.283 78.7871 225.465 78.5783 224.802 78.1607C224.139 77.7497 223.635 77.2029 223.29 76.5201C222.946 75.8307 222.773 75.0783 222.773 74.263ZM225.667 73.1891V74.263C225.667 74.7336 225.78 75.1778 226.005 75.5954C226.237 76.013 226.655 76.2218 227.258 76.2218C227.861 76.2218 228.272 76.0163 228.491 75.6053C228.716 75.1943 228.829 74.7469 228.829 74.263V73.1891C228.829 72.7052 228.723 72.2545 228.511 71.8369C228.299 71.4192 227.881 71.2104 227.258 71.2104C226.661 71.2104 226.247 71.4192 226.015 71.8369C225.783 72.2545 225.667 72.7052 225.667 73.1891ZM212.323 62.6096V61.5357C212.323 60.7138 212.499 59.9614 212.85 59.2786C213.201 58.5892 213.709 58.039 214.371 57.6281C215.041 57.2171 215.85 57.0116 216.798 57.0116C217.779 57.0116 218.601 57.2171 219.263 57.6281C219.926 58.039 220.43 58.5892 220.775 59.2786C221.12 59.9614 221.292 60.7138 221.292 61.5357V62.6096C221.292 63.4316 221.116 64.1839 220.765 64.8667C220.42 65.5495 219.913 66.0963 219.244 66.5073C218.581 66.9117 217.765 67.1138 216.798 67.1138C215.83 67.1138 215.011 66.9084 214.342 66.4974C213.679 66.0798 213.175 65.5329 212.83 64.8567C212.492 64.174 212.323 63.4249 212.323 62.6096ZM215.237 61.5357V62.6096C215.237 63.0935 215.349 63.5409 215.575 63.9519C215.807 64.3629 216.214 64.5684 216.798 64.5684C217.407 64.5684 217.822 64.3629 218.04 63.9519C218.266 63.5409 218.379 63.0935 218.379 62.6096V61.5357C218.379 61.0518 218.272 60.6011 218.06 60.1834C217.848 59.7658 217.427 59.557 216.798 59.557C216.208 59.557 215.8 59.7691 215.575 60.1934C215.349 60.6176 215.237 61.0651 215.237 61.5357ZM213.636 78.0812L227.636 57.7175H230.241L216.241 78.0812H213.636Z" fill="#FAFAFA"/>
<mask id="mask0_1141_5" style="mask-type:alpha" maskUnits="userSpaceOnUse" x="143" y="51" width="34" height="34">
<rect x="143.4" y="51.0812" width="33.6" height="33.6" fill="#D9D9D9"/>
</mask>
<g mask="url(#mask0_1141_5)">
<path d="M173.36 71.0312L163.35 81.0412C163.07 81.3212 162.755 81.5312 162.405 81.6712C162.055 81.8112 161.705 81.8812 161.355 81.8812C161.005 81.8812 160.655 81.8112 160.305 81.6712C159.955 81.5312 159.64 81.3212 159.36 81.0412L147.005 68.6862C146.748 68.4295 146.55 68.132 146.41 67.7937C146.27 67.4553 146.2 67.0995 146.2 66.7262V56.6812C146.2 55.9112 146.474 55.252 147.022 54.7037C147.571 54.1553 148.23 53.8812 149 53.8812H159.045C159.418 53.8812 159.78 53.957 160.13 54.1087C160.48 54.2603 160.783 54.4645 161.04 54.7212L173.36 67.0762C173.64 67.3562 173.844 67.6712 173.972 68.0212C174.101 68.3712 174.165 68.7212 174.165 69.0712C174.165 69.4212 174.101 69.7653 173.972 70.1037C173.844 70.442 173.64 70.7512 173.36 71.0312ZM161.355 79.0812L171.365 69.0712L159.01 56.6812H149V66.6912L161.355 79.0812ZM152.5 62.2812C153.083 62.2812 153.579 62.077 153.987 61.6687C154.396 61.2603 154.6 60.7645 154.6 60.1812C154.6 59.5978 154.396 59.102 153.987 58.6937C153.579 58.2853 153.083 58.0812 152.5 58.0812C151.917 58.0812 151.421 58.2853 151.012 58.6937C150.604 59.102 150.4 59.5978 150.4 60.1812C150.4 60.7645 150.604 61.2603 151.012 61.6687C151.421 62.077 151.917 62.2812 152.5 62.2812Z" fill="#FAFAFA"/>
</g>
<path d="M336.41 71.9761V71.638C336.417 70.478 336.519 69.5532 336.718 68.8638C336.924 68.1745 337.222 67.6176 337.613 67.1934C338.004 66.7691 338.475 66.3847 339.025 66.04C339.436 65.7748 339.804 65.4997 340.129 65.2147C340.454 64.9297 340.712 64.6148 340.904 64.2701C341.097 63.9188 341.193 63.5277 341.193 63.0968C341.193 62.6394 341.083 62.2384 340.865 61.8937C340.646 61.549 340.351 61.2838 339.98 61.0982C339.615 60.9126 339.211 60.8198 338.767 60.8198C338.336 60.8198 337.928 60.9159 337.544 61.1082C337.159 61.2938 336.844 61.5722 336.599 61.9434C336.354 62.308 336.221 62.762 336.201 63.3056H332.144C332.178 61.9799 332.496 60.8861 333.099 60.0244C333.702 59.156 334.501 58.5097 335.495 58.0854C336.49 57.6546 337.587 57.4391 338.786 57.4391C340.106 57.4391 341.272 57.6579 342.286 58.0954C343.301 58.5263 344.096 59.1527 344.673 59.9746C345.249 60.7966 345.538 61.7876 345.538 62.9477C345.538 63.7232 345.409 64.4126 345.15 65.0158C344.898 65.6124 344.544 66.1427 344.086 66.6067C343.629 67.0641 343.088 67.4784 342.465 67.8496C341.942 68.1612 341.511 68.486 341.173 68.8241C340.841 69.1621 340.593 69.5532 340.427 69.9974C340.268 70.4415 340.185 70.9884 340.178 71.638V71.9761H336.41ZM338.379 78.3397C337.716 78.3397 337.149 78.1077 336.678 77.6437C336.214 77.173 335.986 76.6096 335.992 75.9533C335.986 75.3037 336.214 74.7469 336.678 74.2829C337.149 73.8189 337.716 73.5869 338.379 73.5869C339.008 73.5869 339.562 73.8189 340.039 74.2829C340.517 74.7469 340.758 75.3037 340.765 75.9533C340.758 76.3908 340.642 76.7919 340.417 77.1565C340.198 77.5144 339.91 77.8028 339.552 78.0215C339.194 78.2336 338.803 78.3397 338.379 78.3397ZM352.16 71.9761V71.638C352.167 70.478 352.269 69.5532 352.468 68.8638C352.674 68.1745 352.972 67.6176 353.363 67.1934C353.754 66.7691 354.225 66.3847 354.775 66.04C355.186 65.7748 355.554 65.4997 355.879 65.2147C356.204 64.9297 356.462 64.6148 356.654 64.2701C356.847 63.9188 356.943 63.5277 356.943 63.0968C356.943 62.6394 356.833 62.2384 356.615 61.8937C356.396 61.549 356.101 61.2838 355.73 61.0982C355.365 60.9126 354.961 60.8198 354.517 60.8198C354.086 60.8198 353.678 60.9159 353.294 61.1082C352.909 61.2938 352.594 61.5722 352.349 61.9434C352.104 62.308 351.971 62.762 351.951 63.3056H347.894C347.928 61.9799 348.246 60.8861 348.849 60.0244C349.452 59.156 350.251 58.5097 351.245 58.0854C352.24 57.6546 353.337 57.4391 354.536 57.4391C355.856 57.4391 357.022 57.6579 358.036 58.0954C359.051 58.5263 359.846 59.1527 360.423 59.9746C360.999 60.7966 361.288 61.7876 361.288 62.9477C361.288 63.7232 361.159 64.4126 360.9 65.0158C360.648 65.6124 360.294 66.1427 359.836 66.6067C359.379 67.0641 358.838 67.4784 358.215 67.8496C357.692 68.1612 357.261 68.486 356.923 68.8241C356.591 69.1621 356.343 69.5532 356.177 69.9974C356.018 70.4415 355.935 70.9884 355.928 71.638V71.9761H352.16ZM354.129 78.3397C353.466 78.3397 352.899 78.1077 352.428 77.6437C351.964 77.173 351.736 76.6096 351.742 75.9533C351.736 75.3037 351.964 74.7469 352.428 74.2829C352.899 73.8189 353.466 73.5869 354.129 73.5869C354.758 73.5869 355.312 73.8189 355.789 74.2829C356.267 74.7469 356.508 75.3037 356.515 75.9533C356.508 76.3908 356.392 76.7919 356.167 77.1565C355.948 77.5144 355.66 77.8028 355.302 78.0215C354.944 78.2336 354.553 78.3397 354.129 78.3397ZM367.91 71.9761V71.638C367.917 70.478 368.019 69.5532 368.218 68.8638C368.424 68.1745 368.722 67.6176 369.113 67.1934C369.504 66.7691 369.975 66.3847 370.525 66.04C370.936 65.7748 371.304 65.4997 371.629 65.2147C371.954 64.9297 372.212 64.6148 372.404 64.2701C372.597 63.9188 372.693 63.5277 372.693 63.0968C372.693 62.6394 372.583 62.2384 372.365 61.8937C372.146 61.549 371.851 61.2838 371.48 61.0982C371.115 60.9126 370.711 60.8198 370.267 60.8198C369.836 60.8198 369.428 60.9159 369.044 61.1082C368.659 61.2938 368.344 61.5722 368.099 61.9434C367.854 62.308 367.721 62.762 367.701 63.3056H363.644C363.678 61.9799 363.996 60.8861 364.599 60.0244C365.202 59.156 366.001 58.5097 366.995 58.0854C367.99 57.6546 369.087 57.4391 370.286 57.4391C371.606 57.4391 372.772 57.6579 373.786 58.0954C374.801 58.5263 375.596 59.1527 376.173 59.9746C376.749 60.7966 377.038 61.7876 377.038 62.9477C377.038 63.7232 376.909 64.4126 376.65 65.0158C376.398 65.6124 376.044 66.1427 375.586 66.6067C375.129 67.0641 374.588 67.4784 373.965 67.8496C373.442 68.1612 373.011 68.486 372.673 68.8241C372.341 69.1621 372.093 69.5532 371.927 69.9974C371.768 70.4415 371.685 70.9884 371.678 71.638V71.9761H367.91ZM369.879 78.3397C369.216 78.3397 368.649 78.1077 368.178 77.6437C367.714 77.173 367.486 76.6096 367.492 75.9533C367.486 75.3037 367.714 74.7469 368.178 74.2829C368.649 73.8189 369.216 73.5869 369.879 73.5869C370.508 73.5869 371.062 73.8189 371.539 74.2829C372.017 74.7469 372.258 75.3037 372.265 75.9533C372.258 76.3908 372.142 76.7919 371.917 77.1565C371.698 77.5144 371.41 77.8028 371.052 78.0215C370.694 78.2336 370.303 78.3397 369.879 78.3397Z" fill="#FAFAFA"/>
<mask id="mask1_1141_5" style="mask-type:alpha" maskUnits="userSpaceOnUse" x="291" y="51" width="34" height="34">
<rect x="291" y="51.0812" width="33.6" height="33.6" fill="#D9D9D9"/>
</mask>
<g mask="url(#mask1_1141_5)">
<path d="M296.6 81.8812V66.4812H293.8V58.0812H301.08C300.963 57.8712 300.887 57.6495 300.852 57.4162C300.817 57.1829 300.8 56.9379 300.8 56.6812C300.8 55.5145 301.208 54.5229 302.025 53.7062C302.842 52.8895 303.833 52.4812 305 52.4812C305.537 52.4812 306.038 52.5804 306.505 52.7787C306.972 52.977 307.403 53.2512 307.8 53.6012C308.197 53.2279 308.628 52.9479 309.095 52.7612C309.562 52.5745 310.063 52.4812 310.6 52.4812C311.767 52.4812 312.758 52.8895 313.575 53.7062C314.392 54.5229 314.8 55.5145 314.8 56.6812C314.8 56.9379 314.777 57.177 314.73 57.3987C314.683 57.6204 314.613 57.8479 314.52 58.0812H321.8V66.4812H319V81.8812H296.6ZM310.6 55.2812C310.203 55.2812 309.871 55.4154 309.602 55.6837C309.334 55.952 309.2 56.2845 309.2 56.6812C309.2 57.0779 309.334 57.4104 309.602 57.6787C309.871 57.947 310.203 58.0812 310.6 58.0812C310.997 58.0812 311.329 57.947 311.597 57.6787C311.866 57.4104 312 57.0779 312 56.6812C312 56.2845 311.866 55.952 311.597 55.6837C311.329 55.4154 310.997 55.2812 310.6 55.2812ZM303.6 56.6812C303.6 57.0779 303.734 57.4104 304.002 57.6787C304.271 57.947 304.603 58.0812 305 58.0812C305.397 58.0812 305.729 57.947 305.997 57.6787C306.266 57.4104 306.4 57.0779 306.4 56.6812C306.4 56.2845 306.266 55.952 305.997 55.6837C305.729 55.4154 305.397 55.2812 305 55.2812C304.603 55.2812 304.271 55.4154 304.002 55.6837C303.734 55.952 303.6 56.2845 303.6 56.6812ZM296.6 60.8812V63.6812H306.4V60.8812H296.6ZM306.4 79.0812V66.4812H299.4V79.0812H306.4ZM309.2 79.0812H316.2V66.4812H309.2V79.0812ZM319 63.6812V60.8812H309.2V63.6812H319Z" fill="#FAFAFA"/>
</g>
<path d="M159.673 11.0267V25.2812H156.66V13.8874H156.576L153.312 15.9337V13.2609L156.841 11.0267H159.673ZM171.984 17.6389L169.27 17.806C169.223 17.574 169.124 17.3652 168.97 17.1795C168.817 16.9893 168.616 16.8385 168.365 16.7271C168.119 16.6111 167.824 16.5531 167.481 16.5531C167.022 16.5531 166.634 16.6506 166.319 16.8455C166.003 17.0357 165.845 17.2909 165.845 17.6111C165.845 17.8663 165.947 18.0821 166.152 18.2584C166.356 18.4347 166.706 18.5762 167.203 18.683L169.138 19.0727C170.177 19.2862 170.952 19.6295 171.462 20.1028C171.973 20.5761 172.228 21.1979 172.228 21.9682C172.228 22.6688 172.021 23.2837 171.608 23.8126C171.2 24.3416 170.639 24.7546 169.924 25.0516C169.214 25.3439 168.395 25.4901 167.467 25.4901C166.052 25.4901 164.924 25.1954 164.084 24.6061C163.249 24.0122 162.76 23.2048 162.616 22.1839L165.532 22.0308C165.62 22.4624 165.834 22.7918 166.172 23.0192C166.511 23.2419 166.945 23.3533 167.474 23.3533C167.994 23.3533 168.411 23.2535 168.727 23.054C169.047 22.8498 169.209 22.5876 169.214 22.2675C169.209 21.9983 169.096 21.7779 168.873 21.6062C168.65 21.4299 168.307 21.2954 167.843 21.2026L165.992 20.8337C164.947 20.6249 164.17 20.2629 163.66 19.7479C163.154 19.2328 162.901 18.5762 162.901 17.7781C162.901 17.0914 163.087 16.4998 163.458 16.0033C163.834 15.5068 164.36 15.124 165.038 14.8548C165.72 14.5857 166.518 14.4511 167.432 14.4511C168.783 14.4511 169.845 14.7365 170.62 15.3072C171.4 15.878 171.854 16.6552 171.984 17.6389ZM179.781 14.5903V16.8176H173.343V14.5903H179.781ZM174.805 12.029H177.77V21.996C177.77 22.2698 177.812 22.4832 177.895 22.6364C177.979 22.7848 178.095 22.8893 178.243 22.9496C178.396 23.0099 178.573 23.0401 178.772 23.0401C178.911 23.0401 179.051 23.0285 179.19 23.0053C179.329 22.9774 179.436 22.9565 179.51 22.9426L179.976 25.149C179.828 25.1954 179.619 25.2488 179.35 25.3091C179.081 25.3741 178.754 25.4135 178.369 25.4274C177.654 25.4553 177.028 25.3601 176.489 25.142C175.956 24.924 175.54 24.5852 175.243 24.1259C174.946 23.6665 174.8 23.0865 174.805 22.3858V12.029ZM186.305 25.2812V11.0267H191.929C193.01 11.0267 193.931 11.2332 194.692 11.6462C195.453 12.0545 196.033 12.6229 196.432 13.3514C196.836 14.0753 197.038 14.9105 197.038 15.8571C197.038 16.8037 196.833 17.6389 196.425 18.3628C196.017 19.0866 195.425 19.6504 194.65 20.0541C193.88 20.4578 192.947 20.6597 191.852 20.6597H188.268V18.2445H191.365C191.945 18.2445 192.423 18.1447 192.799 17.9452C193.179 17.741 193.462 17.4603 193.648 17.103C193.838 16.7411 193.933 16.3258 193.933 15.8571C193.933 15.3838 193.838 14.9708 193.648 14.6182C193.462 14.2609 193.179 13.9848 192.799 13.7899C192.418 13.5904 191.936 13.4906 191.351 13.4906H189.319V25.2812H186.305ZM201.905 11.0267V25.2812H198.939V11.0267H201.905ZM207.328 25.4831C206.646 25.4831 206.038 25.3648 205.505 25.1281C204.971 24.8868 204.549 24.5319 204.238 24.0632C203.932 23.5899 203.779 23.0006 203.779 22.2953C203.779 21.7014 203.888 21.2026 204.106 20.7989C204.324 20.3952 204.621 20.0704 204.997 19.8244C205.372 19.5785 205.799 19.3929 206.277 19.2676C206.76 19.1423 207.266 19.0542 207.795 19.0031C208.416 18.9382 208.918 18.8778 209.298 18.8222C209.679 18.7618 209.955 18.6737 210.126 18.5577C210.298 18.4417 210.384 18.27 210.384 18.0426V18.0009C210.384 17.56 210.245 17.219 209.966 16.9777C209.692 16.7364 209.303 16.6158 208.797 16.6158C208.263 16.6158 207.839 16.7341 207.523 16.9707C207.208 17.2027 206.999 17.4951 206.897 17.8477L204.154 17.625C204.294 16.9754 204.567 16.4139 204.976 15.9406C205.384 15.4627 205.911 15.0961 206.556 14.8409C207.205 14.5811 207.957 14.4511 208.811 14.4511C209.405 14.4511 209.973 14.5207 210.516 14.6599C211.064 14.7991 211.549 15.0149 211.971 15.3072C212.398 15.5996 212.734 15.9754 212.98 16.4348C213.226 16.8895 213.349 17.4348 213.349 18.0705V25.2812H210.537V23.7987H210.453C210.282 24.1328 210.052 24.4275 209.764 24.6827C209.477 24.9332 209.131 25.1304 208.727 25.2743C208.324 25.4135 207.857 25.4831 207.328 25.4831ZM208.177 23.4368C208.614 23.4368 208.999 23.3509 209.333 23.1793C209.667 23.0029 209.929 22.7663 210.119 22.4693C210.31 22.1723 210.405 21.8359 210.405 21.4601V20.3256C210.312 20.3859 210.184 20.4416 210.022 20.4926C209.864 20.539 209.686 20.5831 209.486 20.6249C209.286 20.662 209.087 20.6968 208.887 20.7293C208.688 20.7571 208.507 20.7826 208.345 20.8058C207.996 20.8569 207.693 20.9381 207.433 21.0494C207.173 21.1608 206.971 21.3116 206.827 21.5018C206.683 21.6875 206.611 21.9195 206.611 22.1979C206.611 22.6016 206.758 22.9101 207.05 23.1236C207.347 23.3324 207.723 23.4368 208.177 23.4368ZM220.48 25.4901C219.385 25.4901 218.443 25.258 217.654 24.794C216.87 24.3254 216.266 23.6758 215.844 22.8452C215.427 22.0146 215.218 21.0587 215.218 19.9776C215.218 18.8825 215.429 17.922 215.851 17.096C216.278 16.2654 216.884 15.6181 217.668 15.1541C218.452 14.6855 219.385 14.4511 220.466 14.4511C221.398 14.4511 222.215 14.6205 222.916 14.9592C223.616 15.298 224.171 15.7736 224.579 16.3861C224.988 16.9986 225.213 17.7178 225.254 18.5437H222.456C222.377 18.0101 222.169 17.5809 221.83 17.2561C221.496 16.9267 221.057 16.7619 220.514 16.7619C220.055 16.7619 219.654 16.8872 219.31 17.1378C218.972 17.3837 218.707 17.7433 218.517 18.2166C218.327 18.6899 218.231 19.263 218.231 19.9358C218.231 20.6179 218.324 21.1979 218.51 21.6759C218.7 22.1538 218.967 22.518 219.31 22.7686C219.654 23.0192 220.055 23.1445 220.514 23.1445C220.853 23.1445 221.157 23.0749 221.426 22.9357C221.7 22.7964 221.925 22.5946 222.101 22.3301C222.282 22.061 222.401 21.7385 222.456 21.3626H225.254C225.208 22.1793 224.985 22.8985 224.586 23.5203C224.192 24.1375 223.647 24.62 222.951 24.968C222.254 25.3161 221.431 25.4901 220.48 25.4901ZM232.025 25.4901C230.925 25.4901 229.979 25.2673 229.185 24.8219C228.396 24.3718 227.788 23.7361 227.362 22.9148C226.935 22.0888 226.721 21.1121 226.721 19.9845C226.721 18.8848 226.935 17.9196 227.362 17.0891C227.788 16.2585 228.389 15.6112 229.164 15.1472C229.944 14.6831 230.858 14.4511 231.907 14.4511C232.612 14.4511 233.269 14.5648 233.876 14.7922C234.489 15.0149 235.022 15.3513 235.477 15.8014C235.937 16.2515 236.294 16.8176 236.549 17.4997C236.804 18.1772 236.932 18.9706 236.932 19.8801V20.6945H227.904V18.857H234.141C234.141 18.4301 234.048 18.0519 233.862 17.7224C233.677 17.393 233.419 17.1355 233.09 16.9499C232.765 16.7596 232.387 16.6645 231.955 16.6645C231.505 16.6645 231.106 16.7689 230.758 16.9777C230.415 17.1819 230.146 17.458 229.951 17.806C229.756 18.1493 229.656 18.5321 229.652 18.9544V20.7014C229.652 21.2304 229.749 21.6875 229.944 22.0726C230.143 22.4577 230.424 22.7547 230.786 22.9635C231.148 23.1723 231.577 23.2767 232.074 23.2767C232.403 23.2767 232.705 23.2303 232.978 23.1375C233.252 23.0447 233.487 22.9055 233.681 22.7199C233.876 22.5343 234.025 22.3069 234.127 22.0378L236.869 22.2187C236.73 22.8777 236.445 23.453 236.013 23.9449C235.586 24.4321 235.034 24.8126 234.357 25.0864C233.684 25.3555 232.907 25.4901 232.025 25.4901Z" fill="#FAFAFA"/>
</svg>
