<svg width="1200" height="675" viewBox="0 0 1200 675" fill="none" xmlns="http://www.w3.org/2000/svg">
<rect width="1200" height="675" fill="#FEFEFE"/>
<path d="M583.272 563.248H581.48V545.584C581.48 542.171 581.949 539.461 582.888 537.456C583.827 535.451 585.064 534.021 586.6 533.168C588.136 532.272 589.843 531.824 591.72 531.824H593.448C595.667 531.824 597.587 532.528 599.208 533.936C600.787 535.301 601.917 537.307 602.6 539.952C603.155 536.709 604.307 534.235 606.056 532.528C607.805 530.779 610.003 529.904 612.648 529.904H614.44C616.36 529.904 618.131 530.352 619.752 531.248C621.331 532.144 622.611 533.637 623.592 535.728C624.531 537.776 625 540.528 625 543.984V563.248H623.208L622.76 559.728C622.675 559.045 622.504 558.64 622.248 558.512C621.949 558.384 621.075 558.32 619.624 558.32H586.856C585.405 558.32 584.552 558.384 584.296 558.512C583.997 558.64 583.805 559.045 583.72 559.728L583.272 563.248ZM583.72 545.584V550.64H601.64V545.584C601.64 543.749 601.021 542.363 599.784 541.424C598.504 540.485 596.499 540.016 593.768 540.016H591.72C588.947 540.016 586.92 540.485 585.64 541.424C584.36 542.363 583.72 543.749 583.72 545.584ZM603.88 543.984V550.64H622.76V543.984C622.76 542.064 622.12 540.613 620.84 539.632C619.517 538.608 617.384 538.096 614.44 538.096H612.328C606.696 538.096 603.88 540.059 603.88 543.984ZM617.384 496.226C620.371 496.994 622.504 498.424 623.784 500.514C625.021 502.605 625.64 505.037 625.64 507.81C625.64 512.93 624.168 516.77 621.224 519.33C618.237 521.89 614.291 523.17 609.384 523.17H608.104C603.197 523.17 599.272 521.976 596.328 519.586C593.384 517.154 591.912 513.656 591.912 509.09C591.912 506.53 592.424 504.269 593.448 502.306C594.429 500.301 595.859 498.744 597.736 497.634C599.613 496.482 601.896 495.906 604.584 495.906C605.224 495.906 605.907 495.949 606.632 496.034C607.357 496.077 608.083 496.184 608.808 496.354V515.298H610.664C615.187 515.298 618.451 514.658 620.456 513.378C622.419 512.098 623.4 510.029 623.4 507.17C623.4 505.336 622.867 503.778 621.8 502.498C620.691 501.218 618.835 500.493 616.232 500.322L617.384 496.226ZM594.152 509.09C594.152 511.181 595.112 512.738 597.032 513.762C598.952 514.786 602.131 515.298 606.568 515.298V503.714C605.715 503.544 604.925 503.437 604.2 503.394C603.432 503.309 602.728 503.266 602.088 503.266C599.357 503.266 597.352 503.8 596.072 504.866C594.792 505.933 594.152 507.341 594.152 509.09ZM617.384 462.351C620.371 463.119 622.504 464.549 623.784 466.639C625.021 468.73 625.64 471.162 625.64 473.935C625.64 479.055 624.168 482.895 621.224 485.455C618.237 488.015 614.291 489.295 609.384 489.295H608.104C603.197 489.295 599.272 488.101 596.328 485.711C593.384 483.279 591.912 479.781 591.912 475.215C591.912 472.655 592.424 470.394 593.448 468.431C594.429 466.426 595.859 464.869 597.736 463.759C599.613 462.607 601.896 462.031 604.584 462.031C605.224 462.031 605.907 462.074 606.632 462.159C607.357 462.202 608.083 462.309 608.808 462.479V481.423H610.664C615.187 481.423 618.451 480.783 620.456 479.503C622.419 478.223 623.4 476.154 623.4 473.295C623.4 471.461 622.867 469.903 621.8 468.623C620.691 467.343 618.835 466.618 616.232 466.447L617.384 462.351ZM594.152 475.215C594.152 477.306 595.112 478.863 597.032 479.887C598.952 480.911 602.131 481.423 606.568 481.423V469.839C605.715 469.669 604.925 469.562 604.2 469.519C603.432 469.434 602.728 469.391 602.088 469.391C599.357 469.391 597.352 469.925 596.072 470.991C594.792 472.058 594.152 473.466 594.152 475.215ZM594.344 457.34H592.552V445.436H597.8C593.875 442.834 591.912 439.74 591.912 436.156C591.912 434.834 592.339 433.554 593.192 432.316C594.003 431.079 595.539 430.055 597.8 429.244L600.872 434.94C599.123 435.538 597.949 436.242 597.352 437.052C596.712 437.82 596.392 438.652 596.392 439.548C596.392 440.487 596.691 441.404 597.288 442.3C597.885 443.196 598.995 444.114 600.616 445.052H619.624C621.075 445.052 621.949 444.988 622.248 444.86C622.504 444.732 622.675 444.327 622.76 443.644L623.208 438.844H625V457.34H623.208L622.76 453.82C622.675 453.138 622.504 452.732 622.248 452.604C621.949 452.476 621.075 452.412 619.624 452.412H597.928C596.477 452.412 595.624 452.476 595.368 452.604C595.069 452.732 594.877 453.138 594.792 453.82L594.344 457.34ZM608.104 382.297H609.384C614.291 382.297 618.237 383.577 621.224 386.137C624.168 388.655 625.64 392.26 625.64 396.953C625.64 401.647 624.168 405.273 621.224 407.833C618.237 410.351 614.291 411.609 609.384 411.609H608.104C603.197 411.609 599.272 410.351 596.328 407.833C593.384 405.273 591.912 401.647 591.912 396.953C591.912 392.26 593.384 388.655 596.328 386.137C599.272 383.577 603.197 382.297 608.104 382.297ZM606.824 390.169C602.259 390.169 599.016 390.745 597.096 391.897C595.133 393.049 594.152 394.735 594.152 396.953C594.152 399.129 595.133 400.815 597.096 402.009C599.016 403.161 602.259 403.737 606.824 403.737H610.664C615.187 403.737 618.451 403.161 620.456 402.009C622.419 400.815 623.4 399.129 623.4 396.953C623.4 394.735 622.419 393.049 620.456 391.897C618.451 390.745 615.187 390.169 610.664 390.169H606.824ZM623.208 359.032H625V377.528H623.208L622.76 374.008C622.675 373.325 622.504 372.92 622.248 372.792C621.949 372.664 621.075 372.6 619.624 372.6H597.928C596.477 372.6 595.624 372.664 595.368 372.792C595.069 372.92 594.877 373.325 594.792 374.008L594.344 377.528H592.552V372.6H589.096C587.048 372.6 585.107 372.259 583.272 371.576C581.395 370.851 579.88 369.656 578.728 367.992C577.576 366.285 577 364.003 577 361.144C577 358.541 577.448 356.408 578.344 354.744C579.24 353.037 580.435 351.821 581.928 351.096C583.421 350.328 585.043 350.093 586.792 350.392L587.816 357.432C584.616 357.005 582.397 357.133 581.16 357.816C579.88 358.456 579.24 359.565 579.24 361.144C579.24 361.997 579.475 362.744 579.944 363.384C580.413 363.981 581.267 364.451 582.504 364.792C583.699 365.091 585.469 365.24 587.816 365.24H592.552V355.64H594.792V365.24H619.624C621.075 365.24 621.949 365.176 622.248 365.048C622.504 364.92 622.675 364.515 622.76 363.832L623.208 359.032ZM618.344 302.869C620.947 303.424 622.824 304.49 623.976 306.069C625.085 307.605 625.64 309.482 625.64 311.701C625.64 313.962 625.149 315.818 624.168 317.269C623.144 318.72 621.8 319.786 620.136 320.469C618.472 321.152 616.701 321.493 614.824 321.493H597.928C596.477 321.493 595.624 321.557 595.368 321.685C595.069 321.813 594.877 322.218 594.792 322.901L594.344 326.421H592.552V321.493H585.128L583.656 314.133H592.552V303.893H594.792V314.133H616.104C618.835 314.133 620.733 313.792 621.8 313.109C622.824 312.426 623.336 311.552 623.336 310.485C623.336 309.376 622.909 308.522 622.056 307.925C621.203 307.285 619.645 306.88 617.384 306.709L618.344 302.869ZM623.208 263.155H625V280.371H623.208L622.76 276.851C622.675 276.168 622.504 275.763 622.248 275.635C621.949 275.507 621.075 275.443 619.624 275.443H603.496C600.552 275.443 598.419 275.891 597.096 276.787C595.731 277.64 595.048 278.92 595.048 280.627C595.048 281.352 595.24 282.206 595.624 283.187C595.965 284.126 596.605 285.086 597.544 286.067C598.483 287.006 599.869 287.838 601.704 288.563H619.624C621.075 288.563 621.949 288.499 622.248 288.371C622.504 288.243 622.675 287.838 622.76 287.155L623.208 283.635H625V300.851H623.208L622.76 297.331C622.675 296.648 622.504 296.243 622.248 296.115C621.949 295.987 621.075 295.923 619.624 295.923H583.016C581.565 295.923 580.712 295.987 580.456 296.115C580.157 296.243 579.965 296.648 579.88 297.331L579.432 300.851H577.64V288.563H597.544C595.581 287.326 594.152 285.79 593.256 283.955C592.36 282.078 591.912 280.2 591.912 278.323C591.912 275.166 592.915 272.67 594.92 270.835C596.925 269 599.763 268.083 603.432 268.083H619.624C621.075 268.083 621.949 268.019 622.248 267.891C622.504 267.763 622.675 267.358 622.76 266.675L623.208 263.155ZM617.384 232.101C620.371 232.869 622.504 234.299 623.784 236.389C625.021 238.48 625.64 240.912 625.64 243.685C625.64 248.805 624.168 252.645 621.224 255.205C618.237 257.765 614.291 259.045 609.384 259.045H608.104C603.197 259.045 599.272 257.851 596.328 255.461C593.384 253.029 591.912 249.531 591.912 244.965C591.912 242.405 592.424 240.144 593.448 238.181C594.429 236.176 595.859 234.619 597.736 233.509C599.613 232.357 601.896 231.781 604.584 231.781C605.224 231.781 605.907 231.824 606.632 231.909C607.357 231.952 608.083 232.059 608.808 232.229V251.173H610.664C615.187 251.173 618.451 250.533 620.456 249.253C622.419 247.973 623.4 245.904 623.4 243.045C623.4 241.211 622.867 239.653 621.8 238.373C620.691 237.093 618.835 236.368 616.232 236.197L617.384 232.101ZM594.152 244.965C594.152 247.056 595.112 248.613 597.032 249.637C598.952 250.661 602.131 251.173 606.568 251.173V239.589C605.715 239.419 604.925 239.312 604.2 239.269C603.432 239.184 602.728 239.141 602.088 239.141C599.357 239.141 597.352 239.675 596.072 240.741C594.792 241.808 594.152 243.216 594.152 244.965ZM583.272 211.498H581.48V192.618C581.48 187.157 583.08 182.975 586.28 180.074C589.48 177.13 594.451 175.658 601.192 175.658H605.224C611.965 175.658 616.957 177.13 620.2 180.074C623.4 182.975 625 187.157 625 192.618V211.498H623.208L622.76 207.978C622.675 207.295 622.504 206.89 622.248 206.762C621.949 206.634 621.075 206.57 619.624 206.57H586.856C585.405 206.57 584.552 206.634 584.296 206.762C583.997 206.89 583.805 207.295 583.72 207.978L583.272 211.498ZM583.72 192.938V198.89H622.76V192.938C622.76 190.762 622.397 189.013 621.672 187.69C620.904 186.367 619.496 185.407 617.448 184.81C615.357 184.17 612.349 183.85 608.424 183.85H597.992C594.067 183.85 591.08 184.17 589.032 184.81C586.984 185.407 585.597 186.367 584.872 187.69C584.104 189.013 583.72 190.762 583.72 192.938ZM623.4 137.325C624.04 138.008 624.573 138.84 625 139.821C625.427 140.76 625.64 141.912 625.64 143.277C625.64 145.027 625.256 146.499 624.488 147.693C623.72 148.845 622.632 149.613 621.224 149.997C622.76 151.405 623.891 152.963 624.616 154.669C625.299 156.333 625.64 158.04 625.64 159.789C625.64 162.733 624.829 164.931 623.208 166.381C621.544 167.832 619.475 168.557 617 168.557C614.483 168.557 612.456 167.64 610.92 165.805C609.341 163.971 608.552 160.728 608.552 156.077V150.253H603.368C599.827 150.253 597.416 150.723 596.136 151.661C594.813 152.557 594.152 153.816 594.152 155.438C594.152 156.504 594.429 157.485 594.984 158.381C595.496 159.277 596.477 159.917 597.928 160.301C599.336 160.643 601.384 160.579 604.072 160.109L603.048 167.149C601.085 167.491 599.272 167.277 597.608 166.509C595.901 165.699 594.536 164.355 593.512 162.477C592.445 160.6 591.912 158.211 591.912 155.309C591.912 152.024 592.445 149.485 593.512 147.693C594.579 145.901 595.987 144.664 597.736 143.981C599.485 143.256 601.363 142.893 603.368 142.893H618.152C620.328 142.893 621.693 142.701 622.248 142.317C622.803 141.933 623.08 141.507 623.08 141.037C623.08 140.269 622.632 139.416 621.736 138.477L623.4 137.325ZM622.248 156.973C622.248 155.864 621.971 154.776 621.416 153.709C620.819 152.6 619.731 151.448 618.152 150.253H610.792V155.053C610.792 157.144 611.283 158.659 612.264 159.597C613.245 160.536 614.781 161.005 616.872 161.005C618.579 161.005 619.901 160.664 620.84 159.981C621.779 159.299 622.248 158.296 622.248 156.973ZM628.2 119.858C630.888 120.839 633.043 121.927 634.664 123.122C636.285 124.274 637.459 125.703 638.184 127.41C638.909 129.117 639.272 131.25 639.272 133.81H632.232C632.232 131.207 632.04 129.117 631.656 127.538C631.315 125.917 630.739 124.679 629.928 123.826C629.16 122.93 628.157 122.269 626.92 121.842L625 121.202V124.53L597.928 133.618C596.947 133.917 596.264 134.173 595.88 134.386C595.453 134.557 595.176 134.77 595.048 135.026C594.92 135.239 594.835 135.581 594.792 136.05L594.344 139.57H592.552V122.29H594.344L594.792 125.81C594.835 126.322 595.005 126.642 595.304 126.77C595.56 126.855 596.435 126.663 597.928 126.194L619.048 119.218L597.672 111.986C596.307 111.517 595.517 111.325 595.304 111.41C595.048 111.453 594.877 111.794 594.792 112.434L594.344 115.954H592.552V103.73H594.344L594.792 107.25C594.877 107.89 595.048 108.317 595.304 108.53C595.56 108.743 596.349 109.085 597.672 109.554L628.2 119.858Z" fill="black"/>
</svg>
